<svg width="119" height="27" viewBox="0 0 119 27" fill="none" xmlns="http://www.w3.org/2000/svg">
<rect width="119" height="27" fill="#E5E5E5"/>
<g id="02_BooksGrid" clip-path="url(#clip0_0_1)">
<rect width="1920" height="4306" transform="translate(-234 -39)" fill="white"/>
<g id="BACKGROUND">
<rect id="background" x="-234" y="-39" width="1920" height="3571" fill="white"/>
</g>
<g id="NAV_v2">
<g id="main">
<g id="background_2" filter="url(#filter0_d_0_1)">
<rect x="-234" y="-39" width="1920" height="130" fill="white"/>
</g>
<g id="logo">
<g id="Bookoe">
<path d="M0 0.758428H10.2196C13.0009 0.758428 15.0423 1.31461 16.3437 2.42697C17.6706 3.51404 18.334 5.28371 18.334 7.73596C18.334 9.05056 18.1171 10.1376 17.6833 10.9972C17.2495 11.8567 16.5095 12.6152 15.4633 13.2725C16.6116 13.7275 17.4537 14.4228 17.9895 15.3581C18.5509 16.2935 18.8316 17.5197 18.8316 19.0365C18.8316 21.5646 18.1044 23.448 16.6499 24.6868C15.1954 25.9256 13.103 26.5449 10.3727 26.5449H0V0.758428ZM9.98993 11.3764C11.9803 11.3764 12.9754 10.3525 12.9754 8.30478C12.9754 6.25702 11.9675 5.23315 9.95165 5.23315H5.28203V11.3764H9.98993ZM10.1048 22.0702C11.253 22.0702 12.0951 21.8427 12.6309 21.3876C13.1923 20.9073 13.473 20.111 13.473 18.9986C13.473 17.8862 13.2051 17.0772 12.6692 16.5716C12.1334 16.0407 11.2785 15.7753 10.1048 15.7753H5.28203V22.0702H10.1048Z" fill="#11142D"/>
<path d="M30.4862 27C27.6028 27 25.4083 26.1404 23.9028 24.4213C22.4228 22.677 21.6828 20.2121 21.6828 17.0267C21.6828 13.8666 22.4228 11.427 23.9028 9.70786C25.4083 7.98876 27.6028 7.12921 30.4862 7.12921C33.3696 7.12921 35.5513 7.98876 37.0313 9.70786C38.5368 11.427 39.2896 13.8666 39.2896 17.0267C39.2896 20.2121 38.5368 22.677 37.0313 24.4213C35.5513 26.1404 33.3696 27 30.4862 27ZM30.4862 22.677C31.711 22.677 32.6169 22.2346 33.2038 21.3497C33.7907 20.4649 34.0841 19.0239 34.0841 17.0267C34.0841 15.0295 33.7907 13.6011 33.2038 12.7416C32.6169 11.882 31.711 11.4522 30.4862 11.4522C29.2614 11.4522 28.3555 11.882 27.7686 12.7416C27.1817 13.6011 26.8883 15.0295 26.8883 17.0267C26.8883 19.0239 27.1817 20.4649 27.7686 21.3497C28.3555 22.2346 29.2614 22.677 30.4862 22.677Z" fill="#11142D"/>
<path d="M50.8575 27C47.9741 27 45.7796 26.1404 44.2741 24.4213C42.7941 22.677 42.0541 20.2121 42.0541 17.0267C42.0541 13.8666 42.7941 11.427 44.2741 9.70786C45.7796 7.98876 47.9741 7.12921 50.8575 7.12921C53.7409 7.12921 55.9226 7.98876 57.4026 9.70786C58.9081 11.427 59.6609 13.8666 59.6609 17.0267C59.6609 20.2121 58.9081 22.677 57.4026 24.4213C55.9226 26.1404 53.7409 27 50.8575 27ZM50.8575 22.677C52.0823 22.677 52.9882 22.2346 53.5751 21.3497C54.1619 20.4649 54.4554 19.0239 54.4554 17.0267C54.4554 15.0295 54.1619 13.6011 53.5751 12.7416C52.9882 11.882 52.0823 11.4522 50.8575 11.4522C49.6327 11.4522 48.7268 11.882 48.1399 12.7416C47.553 13.6011 47.2596 15.0295 47.2596 17.0267C47.2596 19.0239 47.553 20.4649 48.1399 21.3497C48.7268 22.2346 49.6327 22.677 50.8575 22.677Z" fill="#11142D"/>
<path d="M63.4206 0H68.5495V15.0927L70.5015 14.7514L74.2908 7.58427H80.0322L75.0563 16.5716L80.3001 26.5449H74.5205L70.6546 19.1503L68.5495 19.4916V26.5449H63.4206V0Z" fill="#11142D"/>
<path d="M90.5908 27C87.7074 27 85.5129 26.1404 84.0074 24.4213C82.5274 22.677 81.7875 20.2121 81.7875 17.0267C81.7875 13.8666 82.5274 11.427 84.0074 9.70786C85.5129 7.98876 87.7074 7.12921 90.5908 7.12921C93.4743 7.12921 95.656 7.98876 97.136 9.70786C98.6415 11.427 99.3942 13.8666 99.3942 17.0267C99.3942 20.2121 98.6415 22.677 97.136 24.4213C95.656 26.1404 93.4743 27 90.5908 27ZM90.5908 22.677C91.8157 22.677 92.7215 22.2346 93.3084 21.3497C93.8953 20.4649 94.1887 19.0239 94.1887 17.0267C94.1887 15.0295 93.8953 13.6011 93.3084 12.7416C92.7215 11.882 91.8157 11.4522 90.5908 11.4522C89.366 11.4522 88.4602 11.882 87.8733 12.7416C87.2864 13.6011 86.9929 15.0295 86.9929 17.0267C86.9929 19.0239 87.2864 20.4649 87.8733 21.3497C88.4602 22.2346 89.366 22.677 90.5908 22.677Z" fill="#11142D"/>
<path d="M110.656 27C107.67 27 105.514 26.2542 104.187 24.7626C102.86 23.2711 102.197 20.8567 102.197 17.5197C102.197 14.0309 102.886 11.427 104.264 9.70786C105.667 7.98876 107.836 7.12921 110.771 7.12921C113.476 7.12921 115.517 7.84972 116.895 9.29073C118.298 10.7065 119 12.8427 119 15.6994L118.617 19.2261H107.364C107.415 20.111 107.568 20.7935 107.824 21.2739C108.104 21.7289 108.538 22.0576 109.125 22.2598C109.737 22.4368 110.579 22.5253 111.651 22.5253C112.493 22.5253 113.501 22.5 114.675 22.4494C115.849 22.3989 116.703 22.3483 117.239 22.2978L118.311 22.184L118.388 25.9382C115.504 26.6461 112.927 27 110.656 27ZM113.948 15.3581C113.948 13.8413 113.705 12.7921 113.22 12.2107C112.761 11.6039 111.932 11.3006 110.732 11.3006C109.508 11.3006 108.64 11.6166 108.13 12.2486C107.619 12.8553 107.351 13.8919 107.326 15.3581H113.948Z" fill="#11142D"/>
</g>
</g>
</g>
</g>
</g>
<defs>
<filter id="filter0_d_0_1" x="-273" y="-49" width="1998" height="208" filterUnits="userSpaceOnUse" color-interpolation-filters="sRGB">
<feFlood flood-opacity="0" result="BackgroundImageFix"/>
<feColorMatrix in="SourceAlpha" type="matrix" values="0 0 0 0 0 0 0 0 0 0 0 0 0 0 0 0 0 0 127 0" result="hardAlpha"/>
<feOffset dy="29"/>
<feGaussianBlur stdDeviation="19.5"/>
<feColorMatrix type="matrix" values="0 0 0 0 0 0 0 0 0 0 0 0 0 0 0 0 0 0 0.01 0"/>
<feBlend mode="normal" in2="BackgroundImageFix" result="effect1_dropShadow_0_1"/>
<feBlend mode="normal" in="SourceGraphic" in2="effect1_dropShadow_0_1" result="shape"/>
</filter>
<clipPath id="clip0_0_1">
<rect width="1920" height="4306" fill="white" transform="translate(-234 -39)"/>
</clipPath>
</defs>
</svg>
