<svg width="12" height="12" viewBox="0 0 12 12" fill="none" xmlns="http://www.w3.org/2000/svg">
<g clip-path="url(#clip0_943_7)">
<path d="M3.91875 0.414844C4.04531 0.159375 4.30547 0 4.58906 0H7.41094C7.69453 0 7.95469 0.159375 8.08125 0.414844L8.25 0.75H10.5C10.9148 0.75 11.25 1.08516 11.25 1.5C11.25 1.91484 10.9148 2.25 10.5 2.25H1.5C1.08516 2.25 0.75 1.91484 0.75 1.5C0.75 1.08516 1.08516 0.75 1.5 0.75H3.75L3.91875 0.414844ZM1.5 3H10.5V10.5C10.5 11.3273 9.82734 12 9 12H3C2.17266 12 1.5 11.3273 1.5 10.5V3ZM3.75 4.5C3.54375 4.5 3.375 4.66875 3.375 4.875V10.125C3.375 10.3313 3.54375 10.5 3.75 10.5C3.95625 10.5 4.125 10.3313 4.125 10.125V4.875C4.125 4.66875 3.95625 4.5 3.75 4.5ZM6 4.5C5.79375 4.5 5.625 4.66875 5.625 4.875V10.125C5.625 10.3313 5.79375 10.5 6 10.5C6.20625 10.5 6.375 10.3313 6.375 10.125V4.875C6.375 4.66875 6.20625 4.5 6 4.5ZM8.25 4.5C8.04375 4.5 7.875 4.66875 7.875 4.875V10.125C7.875 10.3313 8.04375 10.5 8.25 10.5C8.45625 10.5 8.625 10.3313 8.625 10.125V4.875C8.625 4.66875 8.45625 4.5 8.25 4.5Z" fill="#DD3212"/>
</g>
<defs>
<clipPath id="clip0_943_7">
<rect width="12" height="12" fill="white"/>
</clipPath>
</defs>
</svg>
